<svg xmlns="http://www.w3.org/2000/svg" height="48" width="48"><path d="M24.15 41.7q-3.7 0-6.95-1.375t-5.725-3.85Q9 34 7.625 30.75 6.25 27.5 6.25 23.8q0-5.35 2.825-9.75T16.8 7.5q.25-.05.4-.075.15-.025.3.075t.275.275q.125.175.125.425.15 4.5 1.825 8.45 1.675 3.95 4.675 6.9 2.95 2.95 6.9 4.65 3.95 1.7 8.4 1.85.15-.05.4.125t.4.325q.05.15.025.275-.025.125-.075.325-2.15 4.85-6.575 7.725Q29.45 41.7 24.15 41.7Zm9.65-29.45-2.7-1.15q-.3-.15-.3-.45 0-.3.3-.45L33.8 9l1.15-2.7q.1-.25.425-.25.325 0 .475.25l1.2 2.7 2.7 1.2q.2.15.2.45 0 .3-.2.45l-2.7 1.15-1.2 2.7q-.15.3-.475.3-.325 0-.425-.3Z"/></svg>